<?xml version="1.0" encoding="iso-8859-1"?>
<!-- Generator: Adobe Illustrator 19.0.0, SVG Export Plug-In . SVG Version: 6.00 Build 0)  -->
<svg version="1.1" id="Layer_1" xmlns="http://www.w3.org/2000/svg" xmlns:xlink="http://www.w3.org/1999/xlink" x="0px" y="0px"
	 viewBox="0 0 426.667 426.667" style="enable-background:new 0 0 426.667 426.667;" xml:space="preserve">
<g>
	<path style="fill:#F05228;" d="M213.333,426.667c-88.508,0-160.516-72.009-160.516-160.516h46.652
		c0,62.788,51.085,113.869,113.869,113.869c62.793,0,113.873-51.081,113.873-113.869h46.643
		C373.85,354.658,301.841,426.667,213.333,426.667z"/>
	<rect x="189.995" y="105.634" style="fill:#F05228;" width="46.652" height="297.707"/>
	<rect x="144.742" y="147.115" style="fill:#F05228;" width="137.173" height="46.643"/>
	<path style="fill:#F05228;" d="M213.333,128.96c-35.55,0-64.482-28.924-64.482-64.482C148.851,28.924,177.783,0,213.333,0
		c35.558,0,64.482,28.924,64.482,64.474C277.815,100.032,248.892,128.96,213.333,128.96z M213.333,46.643
		c-9.835,0-17.835,8-17.835,17.835s8,17.835,17.835,17.835c9.835,0,17.835-8,17.835-17.835S223.168,46.643,213.333,46.643z"/>
	<polygon style="fill:#F05228;" points="34.334,266.15 76.143,193.732 117.952,266.15 	"/>
	<polygon style="fill:#F05228;" points="308.715,266.15 350.524,193.732 392.333,266.15 	"/>
</g>
<g>
</g>
<g>
</g>
<g>
</g>
<g>
</g>
<g>
</g>
<g>
</g>
<g>
</g>
<g>
</g>
<g>
</g>
<g>
</g>
<g>
</g>
<g>
</g>
<g>
</g>
<g>
</g>
<g>
</g>
</svg>
