<?xml version="1.0" encoding="iso-8859-1"?>
<!-- Generator: Adobe Illustrator 19.0.0, SVG Export Plug-In . SVG Version: 6.00 Build 0)  -->
<svg version="1.1" id="Layer_1" xmlns="http://www.w3.org/2000/svg" xmlns:xlink="http://www.w3.org/1999/xlink" x="0px" y="0px"
	 viewBox="0 0 426.667 426.667" style="enable-background:new 0 0 426.667 426.667;" xml:space="preserve">
<g>
	<rect x="72.533" y="227.541" style="fill:#50C8EF;" width="200.533" height="64"/>
	<rect x="72.533" y="135.108" style="fill:#50C8EF;" width="200.533" height="64"/>
	<path style="fill:#50C8EF;" d="M354.133,426.667h-36.267c-56.981,0-110.554-22.191-150.852-62.485
		c-40.29-40.294-62.481-93.871-62.481-150.848c0-56.981,22.191-110.554,62.485-150.848S260.885,0,317.867,0h36.267v64h-36.267
		c-39.893,0-77.393,15.535-105.596,43.738c-28.207,28.203-43.738,65.707-43.738,105.596s15.535,77.389,43.742,105.596
		c28.198,28.203,65.707,43.738,105.591,43.738h36.267V426.667z"/>
</g>
<g>
</g>
<g>
</g>
<g>
</g>
<g>
</g>
<g>
</g>
<g>
</g>
<g>
</g>
<g>
</g>
<g>
</g>
<g>
</g>
<g>
</g>
<g>
</g>
<g>
</g>
<g>
</g>
<g>
</g>
</svg>
