<?xml version="1.0" encoding="iso-8859-1"?>
<!-- Generator: Adobe Illustrator 19.0.0, SVG Export Plug-In . SVG Version: 6.00 Build 0)  -->
<svg version="1.1" id="Layer_1" xmlns="http://www.w3.org/2000/svg" xmlns:xlink="http://www.w3.org/1999/xlink" x="0px" y="0px"
	 viewBox="0 0 490.667 490.667" style="enable-background:new 0 0 490.667 490.667;" xml:space="preserve">
<g>
	<path style="fill:#FAC917;" d="M120.367,365.7C53.995,365.7,0,311.706,0,245.333s53.99-120.367,120.367-120.367
		c20.382,0,40.533,5.205,58.274,15.049c9.805,5.419,18.85,12.224,26.833,20.207l85.107,85.111l-85.094,85.099
		c-7.991,7.991-17.041,14.81-26.901,20.25C160.913,360.495,140.762,365.7,120.367,365.7z M120.367,188.966
		C89.284,188.966,64,214.251,64,245.333S89.284,301.7,120.367,301.7c9.685,0,18.842-2.359,27.217-7.01
		c4.668-2.577,8.9-5.769,12.646-9.51l39.846-39.846l-39.846-39.851c-3.746-3.742-7.987-6.933-12.595-9.485
		C139.209,191.326,130.048,188.966,120.367,188.966z"/>
	<path style="fill:#FAC917;" d="M370.3,365.7c-20.399,0-40.559-5.205-58.291-15.049c-9.783-5.406-18.833-12.215-26.825-20.215
		l-85.107-85.103l85.107-85.099c7.974-7.983,17.015-14.793,26.876-20.241c17.698-9.822,37.85-15.023,58.24-15.023
		c66.368,0,120.367,53.995,120.367,120.367S436.668,365.7,370.3,365.7z M290.59,245.333l39.842,39.851
		c3.759,3.75,7.983,6.942,12.574,9.476c8.444,4.685,17.6,7.04,27.29,7.04c31.083,0,56.367-25.284,56.367-56.367
		s-25.284-56.367-56.367-56.367c-9.69,0-18.85,2.359-27.234,7.01c-4.651,2.577-8.883,5.764-12.625,9.51L290.59,245.333z"/>
</g>
<g>
</g>
<g>
</g>
<g>
</g>
<g>
</g>
<g>
</g>
<g>
</g>
<g>
</g>
<g>
</g>
<g>
</g>
<g>
</g>
<g>
</g>
<g>
</g>
<g>
</g>
<g>
</g>
<g>
</g>
</svg>
