<?xml version="1.0" encoding="iso-8859-1"?>
<!-- Generator: Adobe Illustrator 19.0.0, SVG Export Plug-In . SVG Version: 6.00 Build 0)  -->
<svg version="1.1" id="Layer_1" xmlns="http://www.w3.org/2000/svg" xmlns:xlink="http://www.w3.org/1999/xlink" x="0px" y="0px"
	 viewBox="0 0 426.667 426.667" style="enable-background:new 0 0 426.667 426.667;" xml:space="preserve">
<g>
	
		<rect x="181.343" y="-43.104" transform="matrix(-0.7071 -0.7071 0.7071 -0.7071 213.3582 515.0159)" style="fill:#F05228;" width="63.999" height="512.848"/>
	<path style="fill:#F05228;" d="M326.272,426.667c-55.351,0-100.382-45.035-100.382-100.386s45.03-100.39,100.382-100.39
		c55.356,0,100.386,45.035,100.386,100.386S381.624,426.667,326.272,426.667z M326.272,289.89
		c-20.062,0-36.382,16.324-36.382,36.386c0,20.062,16.32,36.39,36.382,36.39c20.062,0,36.386-16.324,36.386-36.386
		S346.334,289.89,326.272,289.89z"/>
	<path style="fill:#F05228;" d="M100.395,200.772c-55.356,0-100.386-45.035-100.386-100.386C0.009,45.035,45.043,0,100.395,0
		s100.382,45.035,100.382,100.382C200.781,155.738,155.746,200.772,100.395,200.772z M100.395,64
		c-20.062,0-36.386,16.32-36.386,36.382c0,20.066,16.324,36.386,36.386,36.386s36.382-16.32,36.382-36.386
		C136.781,80.32,120.457,64,100.395,64z"/>
</g>
<g>
</g>
<g>
</g>
<g>
</g>
<g>
</g>
<g>
</g>
<g>
</g>
<g>
</g>
<g>
</g>
<g>
</g>
<g>
</g>
<g>
</g>
<g>
</g>
<g>
</g>
<g>
</g>
<g>
</g>
</svg>
