<?xml version="1.0" encoding="iso-8859-1"?>
<!-- Generator: Adobe Illustrator 19.0.0, SVG Export Plug-In . SVG Version: 6.00 Build 0)  -->
<svg version="1.1" id="Layer_1" xmlns="http://www.w3.org/2000/svg" xmlns:xlink="http://www.w3.org/1999/xlink" x="0px" y="0px"
	 viewBox="0 0 426.667 426.667" style="enable-background:new 0 0 426.667 426.667;" xml:space="preserve">
<g>
	<path style="fill:#6AC259;" d="M173.118,320c-3.802,0-7.117-1.916-8.841-4.723c-0.077-0.107-0.115-0.218-0.201-0.324
		c-11.191-19.861-22.959-54.583-22.959-101.619c0-47.04,11.759-81.758,22.959-101.615c0.085-0.111,0.124-0.218,0.201-0.324
		c1.724-2.82,5.043-4.727,8.841-4.727V0C114.208,0,66.451,95.509,66.451,213.333c0,117.815,47.757,213.333,106.667,213.333V320z"/>
	<path style="fill:#6AC259;" d="M237.118,12.8c0-3.277-1.25-6.554-3.75-9.05c-2.5-2.5-5.773-3.75-9.05-3.75h-38.4v106.667h38.4
		c3.277,0,6.549-1.25,9.05-3.75c2.5-2.5,3.75-5.777,3.75-9.05V12.8z"/>
	<path style="fill:#6AC259;" d="M237.118,332.8c0-3.277-1.25-6.554-3.75-9.05c-2.5-2.5-5.773-3.75-9.05-3.75h-38.4v106.667h38.4
		c3.277,0,6.549-1.25,9.05-3.75c2.5-2.5,3.75-5.777,3.75-9.05V332.8z"/>
	<path style="fill:#6AC259;" d="M253.118,253.338l-16-16.004c6.409-6.409,9.941-14.933,9.941-24s-3.533-17.591-9.941-24.009l16-16
		c10.684,10.688,16.567,24.892,16.567,40.009C269.685,228.442,263.802,242.65,253.118,253.338z"/>
	<path style="fill:#6AC259;" d="M285.092,285.316l-16-16c14.985-14.985,23.223-34.867,23.223-55.983
		c0-21.12-8.243-40.998-23.223-55.983l16-16.004c19.26,19.26,29.858,44.821,29.858,71.987
		C314.95,240.491,304.352,266.057,285.092,285.316z"/>
	<path style="fill:#6AC259;" d="M317.084,317.308l-16-16.009c23.535-23.535,36.501-54.775,36.501-87.966
		s-12.966-64.439-36.501-87.974l16-16.004c27.819,27.814,43.132,64.738,43.132,103.979
		C360.22,252.565,344.902,289.498,317.084,317.308z"/>
</g>
<g>
</g>
<g>
</g>
<g>
</g>
<g>
</g>
<g>
</g>
<g>
</g>
<g>
</g>
<g>
</g>
<g>
</g>
<g>
</g>
<g>
</g>
<g>
</g>
<g>
</g>
<g>
</g>
<g>
</g>
</svg>
