<?xml version="1.0" encoding="iso-8859-1"?>
<!-- Generator: Adobe Illustrator 19.0.0, SVG Export Plug-In . SVG Version: 6.00 Build 0)  -->
<svg version="1.1" id="Layer_1" xmlns="http://www.w3.org/2000/svg" xmlns:xlink="http://www.w3.org/1999/xlink" x="0px" y="0px"
	 viewBox="0 0 426.645 426.645" style="enable-background:new 0 0 426.645 426.645;" xml:space="preserve">
<g>
	<path style="fill:#6AC259;" d="M83.603,142.707v71.36c0,33.199,12.668,66.402,37.999,91.733s58.534,37.999,91.733,37.999
		c33.207,0,66.406-12.668,91.742-37.999s37.999-58.534,37.999-91.733v-71.36H83.603z"/>
	<rect x="62.517" y="84.331" style="fill:#6AC259;" width="301.611" height="58.381"/>
	<path style="fill:#6AC259;" d="M136.284,5.7c-3.797-3.802-8.781-5.7-13.764-5.7c-4.975,0-9.958,1.899-13.76,5.7
		c-3.802,3.802-5.7,8.781-5.7,13.76v64.87h38.925V19.46C141.984,14.481,140.077,9.502,136.284,5.7z"/>
	<path style="fill:#6AC259;" d="M317.911,5.7c-3.802-3.802-8.777-5.7-13.76-5.7c-4.975,0-9.958,1.899-13.76,5.7
		c-3.802,3.802-5.7,8.781-5.7,13.76v64.87h38.916V19.46C323.612,14.481,321.709,9.502,317.911,5.7z"/>
	<rect x="193.879" y="342.315" style="fill:#6AC259;" width="38.916" height="84.331"/>
</g>
<g>
</g>
<g>
</g>
<g>
</g>
<g>
</g>
<g>
</g>
<g>
</g>
<g>
</g>
<g>
</g>
<g>
</g>
<g>
</g>
<g>
</g>
<g>
</g>
<g>
</g>
<g>
</g>
<g>
</g>
</svg>
