<?xml version="1.0" encoding="iso-8859-1"?>
<!-- Generator: Adobe Illustrator 19.0.0, SVG Export Plug-In . SVG Version: 6.00 Build 0)  -->
<svg version="1.1" id="Layer_1" xmlns="http://www.w3.org/2000/svg" xmlns:xlink="http://www.w3.org/1999/xlink" x="0px" y="0px"
	 viewBox="0 0 426.667 426.667" style="enable-background:new 0 0 426.667 426.667;" xml:space="preserve">
<g>
	<rect x="74.667" y="362.667" style="fill:#F05228;" width="277.333" height="64"/>
	<rect x="74.667" y="208" style="fill:#F05228;" width="192" height="64"/>
	<path style="fill:#F05228;" d="M160,394.667H96V117.333c0-31.343,12.207-60.809,34.368-82.965C152.529,12.203,181.99,0,213.333,0
		s60.809,12.203,82.97,34.368c22.161,22.157,34.364,51.627,34.364,82.965h-64c0-14.251-5.547-27.644-15.616-37.713
		C240.977,69.547,227.584,64,213.333,64c-14.242,0-27.639,5.547-37.709,15.62C165.551,89.69,160,103.087,160,117.333V394.667z"/>
</g>
<g>
</g>
<g>
</g>
<g>
</g>
<g>
</g>
<g>
</g>
<g>
</g>
<g>
</g>
<g>
</g>
<g>
</g>
<g>
</g>
<g>
</g>
<g>
</g>
<g>
</g>
<g>
</g>
<g>
</g>
</svg>
