<?xml version="1.0" encoding="iso-8859-1"?>
<!-- Generator: Adobe Illustrator 19.0.0, SVG Export Plug-In . SVG Version: 6.00 Build 0)  -->
<svg version="1.1" id="Layer_1" xmlns="http://www.w3.org/2000/svg" xmlns:xlink="http://www.w3.org/1999/xlink" x="0px" y="0px"
	 viewBox="0 0 426.667 426.667" style="enable-background:new 0 0 426.667 426.667;" xml:space="preserve">
<g>
	<polygon style="fill:#50C8EF;" points="171.947,179.017 146.086,204.877 213.35,272.141 213.35,220.416 	"/>
	<path style="fill:#50C8EF;" d="M213.35,0C164.834,35.482,105.233,56.585,40.657,57.067v100.134
		c0,119.543,70.767,222.566,172.693,269.466C315.26,379.767,386.01,276.74,386.01,157.201V57.067
		C321.442,56.585,261.807,35.482,213.35,0z M213.35,272.141l-0.004-0.009l0.004,111.569
		c-82.138-45.001-134.293-132.045-134.293-226.5V93.043c47.71-5.751,93.265-21.619,134.281-46.818l0.009,174.187l0.004,0.004
		l69.214-69.21l25.86,25.86L213.35,272.141z"/>
</g>
<g>
</g>
<g>
</g>
<g>
</g>
<g>
</g>
<g>
</g>
<g>
</g>
<g>
</g>
<g>
</g>
<g>
</g>
<g>
</g>
<g>
</g>
<g>
</g>
<g>
</g>
<g>
</g>
<g>
</g>
</svg>
