<?xml version="1.0" encoding="iso-8859-1"?>
<!-- Generator: Adobe Illustrator 19.0.0, SVG Export Plug-In . SVG Version: 6.00 Build 0)  -->
<svg version="1.1" id="Layer_1" xmlns="http://www.w3.org/2000/svg" xmlns:xlink="http://www.w3.org/1999/xlink" x="0px" y="0px"
	 viewBox="0 0 426.667 426.667" style="enable-background:new 0 0 426.667 426.667;" xml:space="preserve">
<g>
	<path style="fill:#F05228;" d="M106.667,182.369c0-3.802,1.911-7.121,4.723-8.841c0.107-0.081,0.218-0.115,0.324-0.201
		c19.861-11.196,54.579-22.959,101.619-22.959s81.758,11.759,101.615,22.959c0.107,0.085,0.218,0.119,0.324,0.201
		c2.816,1.724,4.727,5.043,4.727,8.841h106.667c0-58.91-95.514-106.667-213.333-106.667S0,123.46,0,182.369H106.667z"/>
	<path style="fill:#F05228;" d="M413.867,246.369c3.277,0,6.549-1.25,9.05-3.75c2.5-2.5,3.75-5.773,3.75-9.05v-38.4H320v38.4
		c0,3.277,1.25,6.549,3.75,9.05c2.5,2.5,5.777,3.75,9.05,3.75H413.867z"/>
	<path style="fill:#F05228;" d="M93.867,246.369c3.277,0,6.549-1.25,9.05-3.75s3.75-5.773,3.75-9.05v-38.4H0v38.4
		c0,3.277,1.25,6.549,3.75,9.05s5.777,3.75,9.05,3.75H93.867z"/>
	
		<rect x="196.244" y="241.76" transform="matrix(0.7071 -0.7071 0.7071 0.7071 -148.6985 238.3037)" style="fill:#F05228;" width="34.129" height="113.774"/>
	
		<rect x="196.275" y="241.788" transform="matrix(-0.707 -0.7072 0.7072 -0.707 152.9502 660.7167)" style="fill:#F05228;" width="34.133" height="113.774"/>
</g>
<g>
</g>
<g>
</g>
<g>
</g>
<g>
</g>
<g>
</g>
<g>
</g>
<g>
</g>
<g>
</g>
<g>
</g>
<g>
</g>
<g>
</g>
<g>
</g>
<g>
</g>
<g>
</g>
<g>
</g>
</svg>
