<?xml version="1.0" encoding="iso-8859-1"?>
<!-- Generator: Adobe Illustrator 19.0.0, SVG Export Plug-In . SVG Version: 6.00 Build 0)  -->
<svg version="1.1" id="Layer_1" xmlns="http://www.w3.org/2000/svg" xmlns:xlink="http://www.w3.org/1999/xlink" x="0px" y="0px"
	 viewBox="0 0 426.667 426.667" style="enable-background:new 0 0 426.667 426.667;" xml:space="preserve">
<g>
	<path style="fill:#50C8EF;" d="M213.333,0C140.834,0,82.048,58.773,82.048,131.285c0,72.503,58.782,131.285,131.285,131.285
		c72.508,0,131.285-58.778,131.285-131.285C344.619,58.773,285.841,0,213.333,0z M213.333,219.9
		c-48.943,0-88.619-39.676-88.619-88.619s39.676-88.614,88.619-88.614s88.619,39.676,88.619,88.619S262.276,219.9,213.333,219.9z"/>
	<path style="fill:#50C8EF;" d="M250.091,389.909c0,9.408-3.584,18.816-10.765,25.993c-7.176,7.176-16.585,10.765-25.993,10.765l0,0
		c-9.408,0-18.816-3.588-25.993-10.765c-7.177-7.177-10.765-16.585-10.765-25.993V242.871h73.515L250.091,389.909L250.091,389.909z"
		/>
</g>
<g>
</g>
<g>
</g>
<g>
</g>
<g>
</g>
<g>
</g>
<g>
</g>
<g>
</g>
<g>
</g>
<g>
</g>
<g>
</g>
<g>
</g>
<g>
</g>
<g>
</g>
<g>
</g>
<g>
</g>
</svg>
