<?xml version="1.0" encoding="iso-8859-1"?>
<!-- Generator: Adobe Illustrator 19.0.0, SVG Export Plug-In . SVG Version: 6.00 Build 0)  -->
<svg version="1.1" id="Layer_1" xmlns="http://www.w3.org/2000/svg" xmlns:xlink="http://www.w3.org/1999/xlink" x="0px" y="0px"
	 viewBox="0 0 426.667 426.667" style="enable-background:new 0 0 426.667 426.667;" xml:space="preserve">
<g>
	<path style="fill:#50C8EF;" d="M149.333,192v-85.333c0-17.092,6.66-33.165,18.743-45.257c12.092-12.083,28.16-18.743,45.257-18.743
		c17.092,0,33.165,6.66,45.252,18.748c12.087,12.087,18.748,28.16,18.748,45.252V192H320v-85.333
		c0-27.298-10.415-54.596-31.241-75.426C267.925,10.415,240.627,0,213.333,0c-27.298,0-54.601,10.415-75.426,31.241
		c-20.83,20.83-31.241,48.128-31.241,75.426V192H149.333z"/>
	<path style="fill:#50C8EF;" d="M288.759,395.426C309.585,374.596,320,347.298,320,320v-85.333h-42.667V320
		c0,17.097-6.66,33.165-18.752,45.257C246.498,377.34,230.426,384,213.333,384c-17.101,0-33.165-6.66-45.257-18.748
		c-12.083-12.087-18.743-28.156-18.743-45.252v-85.333h-42.667V320c0,27.298,10.411,54.596,31.241,75.426
		c20.826,20.83,48.128,31.241,75.426,31.241C240.627,426.667,267.925,416.256,288.759,395.426z"/>
	<rect x="192" y="106.667" style="fill:#50C8EF;" width="42.667" height="213.333"/>
</g>
<g>
</g>
<g>
</g>
<g>
</g>
<g>
</g>
<g>
</g>
<g>
</g>
<g>
</g>
<g>
</g>
<g>
</g>
<g>
</g>
<g>
</g>
<g>
</g>
<g>
</g>
<g>
</g>
<g>
</g>
</svg>
