<?xml version="1.0" encoding="iso-8859-1"?>
<!-- Generator: Adobe Illustrator 19.0.0, SVG Export Plug-In . SVG Version: 6.00 Build 0)  -->
<svg version="1.1" id="Layer_1" xmlns="http://www.w3.org/2000/svg" xmlns:xlink="http://www.w3.org/1999/xlink" x="0px" y="0px"
	 viewBox="0 0 426.667 426.667" style="enable-background:new 0 0 426.667 426.667;" xml:space="preserve">
<g>
	<path style="fill:#6AC259;" d="M213.333,245.333H176c-28.489,0-55.275-11.098-75.422-31.241
		c-20.147-20.151-31.245-46.938-31.245-75.426c0-28.493,11.098-55.275,31.236-75.426C120.725,43.093,147.511,32,176,32h149.333v64
		H176c-11.396,0-22.114,4.437-30.17,12.497s-12.497,18.773-12.497,30.17s4.437,22.114,12.497,30.17s18.773,12.497,30.17,12.497
		h37.333V245.333z"/>
	<path style="fill:#6AC259;" d="M250.667,394.667H101.333v-64h149.333c11.396,0,22.114-4.437,30.17-12.497
		c8.055-8.06,12.497-18.773,12.497-30.17c0-11.396-4.437-22.114-12.501-30.174c-8.055-8.055-18.769-12.493-30.165-12.493h-37.333
		v-64h37.333c28.497,0,55.279,11.098,75.43,31.241c20.143,20.156,31.236,46.938,31.236,75.426c0,28.484-11.093,55.27-31.232,75.422
		C305.946,383.569,279.164,394.667,250.667,394.667z"/>
	<rect x="181.333" style="fill:#6AC259;" width="64" height="64"/>
	<rect x="181.333" y="362.667" style="fill:#6AC259;" width="64" height="64"/>
</g>
<g>
</g>
<g>
</g>
<g>
</g>
<g>
</g>
<g>
</g>
<g>
</g>
<g>
</g>
<g>
</g>
<g>
</g>
<g>
</g>
<g>
</g>
<g>
</g>
<g>
</g>
<g>
</g>
<g>
</g>
</svg>
