<?xml version="1.0" encoding="iso-8859-1"?>
<!-- Generator: Adobe Illustrator 19.0.0, SVG Export Plug-In . SVG Version: 6.00 Build 0)  -->
<svg version="1.1" id="Layer_1" xmlns="http://www.w3.org/2000/svg" xmlns:xlink="http://www.w3.org/1999/xlink" x="0px" y="0px"
	 viewBox="0 0 426.667 426.667" style="enable-background:new 0 0 426.667 426.667;" xml:space="preserve">
<g>
	<path style="fill:#F05228;" d="M144.139,426.667c-52.271,0-94.797-42.526-94.797-94.797s42.526-94.797,94.797-94.797
		s94.793,42.526,94.793,94.797S196.41,426.667,144.139,426.667z M144.139,288.273c-24.038,0-43.597,19.558-43.597,43.597
		s19.558,43.597,43.597,43.597s43.593-19.558,43.593-43.597S168.177,288.273,144.139,288.273z"/>
	<path style="fill:#F05228;" d="M282.532,94.797c-52.275,0-94.801-42.526-94.801-94.797h51.2c0,24.043,19.558,43.597,43.601,43.597
		V94.797z"/>
	<path style="fill:#F05228;" d="M377.325,138.394h-51.2c0-24.043-19.558-43.597-43.593-43.597v-51.2
		C334.799,43.597,377.325,86.123,377.325,138.394z"/>
	<rect x="187.731" style="fill:#F05228;" width="51.2" height="331.861"/>
</g>
<g>
</g>
<g>
</g>
<g>
</g>
<g>
</g>
<g>
</g>
<g>
</g>
<g>
</g>
<g>
</g>
<g>
</g>
<g>
</g>
<g>
</g>
<g>
</g>
<g>
</g>
<g>
</g>
<g>
</g>
</svg>
