<?xml version="1.0" encoding="iso-8859-1"?>
<!-- Generator: Adobe Illustrator 19.0.0, SVG Export Plug-In . SVG Version: 6.00 Build 0)  -->
<svg version="1.1" id="Layer_1" xmlns="http://www.w3.org/2000/svg" xmlns:xlink="http://www.w3.org/1999/xlink" x="0px" y="0px"
	 viewBox="0 0 426.667 426.667" style="enable-background:new 0 0 426.667 426.667;" xml:space="preserve">
<g>
	<polygon style="fill:#50C8EF;" points="386.001,283.358 340.284,283.358 340.284,45.717 133.973,45.717 133.973,0 386.001,0 	"/>
	<polygon style="fill:#50C8EF;" points="179.691,357.137 133.973,357.137 133.973,73.796 386.001,73.796 386.001,119.509 
		179.691,119.509 	"/>
	<path style="fill:#50C8EF;" d="M316.51,352.887c-38.34,0-69.534-31.198-69.534-69.547c0-38.332,31.194-69.513,69.534-69.513
		s69.525,31.181,69.525,69.513C386.035,321.69,354.85,352.887,316.51,352.887z M316.51,259.541
		c-13.133,0-23.825,10.675-23.825,23.799c0,13.141,10.692,23.834,23.825,23.834s23.817-10.692,23.817-23.834
		C340.326,270.217,329.643,259.541,316.51,259.541z"/>
	<path style="fill:#50C8EF;" d="M110.148,426.667c-38.332,0-69.517-31.185-69.517-69.513c0-38.345,31.185-69.547,69.517-69.547
		c38.349,0,69.542,31.202,69.542,69.547C179.691,395.482,148.501,426.667,110.148,426.667z M110.148,333.325
		c-13.124,0-23.799,10.688-23.799,23.829c0,13.12,10.675,23.795,23.799,23.795c13.141,0,23.825-10.675,23.825-23.795
		C133.973,344.013,123.29,333.325,110.148,333.325z"/>
</g>
<g>
</g>
<g>
</g>
<g>
</g>
<g>
</g>
<g>
</g>
<g>
</g>
<g>
</g>
<g>
</g>
<g>
</g>
<g>
</g>
<g>
</g>
<g>
</g>
<g>
</g>
<g>
</g>
<g>
</g>
</svg>
