<?xml version="1.0" encoding="iso-8859-1"?>
<!-- Generator: Adobe Illustrator 19.0.0, SVG Export Plug-In . SVG Version: 6.00 Build 0)  -->
<svg version="1.1" id="Layer_1" xmlns="http://www.w3.org/2000/svg" xmlns:xlink="http://www.w3.org/1999/xlink" x="0px" y="0px"
	 viewBox="0 0 426.667 426.667" style="enable-background:new 0 0 426.667 426.667;" xml:space="preserve">
<g>
	<rect x="4.35" y="118.515" style="fill:#50C8EF;" width="142.208" height="189.611"/>
	<polygon style="fill:#50C8EF;" points="51.753,213.333 265.086,426.667 265.086,0 	"/>
	<path style="fill:#50C8EF;" d="M315.219,253.338l-16-16.004c6.409-6.409,9.937-14.933,9.937-24s-3.529-17.591-9.937-24.009l16-16
		c10.684,10.688,16.567,24.892,16.567,40.009C331.787,228.442,325.903,242.65,315.219,253.338z"/>
	<path style="fill:#50C8EF;" d="M347.194,285.316l-16-16c14.98-14.985,23.223-34.867,23.223-55.983
		c0-21.12-8.247-40.998-23.223-55.983l16-16.004c19.26,19.26,29.858,44.821,29.858,71.987
		C377.052,240.491,366.453,266.057,347.194,285.316z"/>
	<path style="fill:#50C8EF;" d="M379.185,317.308l-16-16.009c23.535-23.535,36.501-54.775,36.501-87.966
		s-12.966-64.439-36.501-87.974l16-16.004c27.819,27.814,43.132,64.738,43.132,103.979
		C422.317,252.565,407.004,289.498,379.185,317.308z"/>
</g>
<g>
</g>
<g>
</g>
<g>
</g>
<g>
</g>
<g>
</g>
<g>
</g>
<g>
</g>
<g>
</g>
<g>
</g>
<g>
</g>
<g>
</g>
<g>
</g>
<g>
</g>
<g>
</g>
<g>
</g>
</svg>
